# xmcd
#
# Track frame offsets: 
#        150
#        54076
#        85351
#        118670
#
# Disc length: 2036 seconds
#
# Revision: 0
# Processed by: cddbd v1.5.2PL0 Copyright (c) Steve Scherf et al.
# Submitted via: ExactAudioCopy v1.0b3
#
DISCID=2907f204
DTITLE=Pressor | Diazepam | Soom - Pressor | Diazepam | Soom
DYEAR=2013
DGENRE=Sludge Stoner Doom
TTITLE0=Pressor - Royal Witch
TTITLE1=Pressor - Geeked Up Cookie Monster
TTITLE2=Diazepam - Sinking
TTITLE3=Soom - Through Trembita to Lungs and Vice Versa
EXTD=
EXTT0=
EXTT1=
EXTT2=
EXTT3=
PLAYORDER=
